<svg xmlns="http://www.w3.org/2000/svg" height="997" width="960.0" font-size="16" font-family="sans-serif" stroke-width="2">
<g transform="translate(10.0 0)">
<text fill="hsl(0, 100%, 40%)" y="22">2025.Day01-Part1 3.42 ms</text>
<g>
<title>3.42 ms ± 212 μs</title>
<rect y="28" rx="5" height="22" width="8.155380316105836" fill="hsl(0, 100%, 80%)" stroke="hsl(0, 100%, 55%)" />
<g stroke="hsl(0, 100%, 40%)"><line x1="7.649639806387716" x2="8.661120825823955" y1="39" y2="39" />
<line x1="7.649639806387716" x2="7.649639806387716" y1="33" y2="45" />
<line x1="8.661120825823955" x2="8.661120825823955" y1="33" y2="45" />
</g>
</g>
<text fill="hsl(20, 100%, 40%)" y="77">2025.Day01-Part2 3.44 ms</text>
<g>
<title>3.44 ms ± 123 μs</title>
<rect y="83" rx="5" height="22" width="8.209511643454038" fill="hsl(20, 100%, 80%)" stroke="hsl(20, 100%, 55%)" />
<g stroke="hsl(20, 100%, 40%)"><line x1="7.915409903073882" x2="8.503613383834194" y1="94" y2="94" />
<line x1="7.915409903073882" x2="7.915409903073882" y1="88" y2="100" />
<line x1="8.503613383834194" x2="8.503613383834194" y1="88" y2="100" />
</g>
</g>
<g fill="hsl(40, 100%, 40%)">
<text y="132">2025.Day02-Part1</text>
<text y="132" x="368.14390469201123" text-anchor="end">154  ms</text>
</g>
<g>
<title>154  ms ±  14 ms</title>
<rect y="138" rx="5" height="22" width="368.14390469201123" fill="hsl(40, 100%, 80%)" stroke="hsl(40, 100%, 55%)" />
<g stroke="hsl(40, 100%, 40%)"><line x1="335.459340672697" x2="400.82846871132546" y1="149" y2="149" />
<line x1="335.459340672697" x2="335.459340672697" y1="143" y2="155" />
<line x1="400.82846871132546" x2="400.82846871132546" y1="143" y2="155" />
</g>
</g>
<g fill="hsl(60, 100%, 40%)">
<text y="187">2025.Day02-Part2</text>
<text y="187" x="871.9354599277054" text-anchor="end">365  ms</text>
</g>
<g>
<title>365  ms ±  29 ms</title>
<rect y="193" rx="5" height="22" width="871.9354599277054" fill="hsl(60, 100%, 80%)" stroke="hsl(60, 100%, 55%)" />
<g stroke="hsl(60, 100%, 40%)"><line x1="803.8709198554109" x2="940.0" y1="204" y2="204" />
<line x1="803.8709198554109" x2="803.8709198554109" y1="198" y2="210" />
<line x1="940.0" x2="940.0" y1="198" y2="210" />
</g>
</g>
<text fill="hsl(80, 100%, 40%)" y="242">2025.Day03-Part1 36.3 ms</text>
<g>
<title>36.3 ms ± 3.6 ms</title>
<rect y="248" rx="5" height="22" width="86.58033822381722" fill="hsl(80, 100%, 80%)" stroke="hsl(80, 100%, 55%)" />
<g stroke="hsl(80, 100%, 40%)"><line x1="78.09896821437145" x2="95.06170823326299" y1="259" y2="259" />
<line x1="78.09896821437145" x2="78.09896821437145" y1="253" y2="265" />
<line x1="95.06170823326299" x2="95.06170823326299" y1="253" y2="265" />
</g>
</g>
<text fill="hsl(100, 100%, 40%)" y="297">2025.Day03-Part2 25.1 ms</text>
<g>
<title>25.1 ms ± 2.1 ms</title>
<rect y="303" rx="5" height="22" width="59.912711036479365" fill="hsl(100, 100%, 80%)" stroke="hsl(100, 100%, 55%)" />
<g stroke="hsl(100, 100%, 40%)"><line x1="55.016861135568774" x2="64.80856093738996" y1="314" y2="314" />
<line x1="55.016861135568774" x2="55.016861135568774" y1="308" y2="320" />
<line x1="64.80856093738996" x2="64.80856093738996" y1="308" y2="320" />
</g>
</g>
<text fill="hsl(120, 100%, 40%)" y="352">2025.Day04-Part1 7.67 ms</text>
<g>
<title>7.67 ms ± 471 μs</title>
<rect y="358" rx="5" height="22" width="18.307620176741544" fill="hsl(120, 100%, 80%)" stroke="hsl(120, 100%, 55%)" />
<g stroke="hsl(120, 100%, 40%)"><line x1="17.182773344105946" x2="19.43246700937714" y1="369" y2="369" />
<line x1="17.182773344105946" x2="17.182773344105946" y1="363" y2="375" />
<line x1="19.43246700937714" x2="19.43246700937714" y1="363" y2="375" />
</g>
</g>
<g fill="hsl(140, 100%, 40%)">
<text y="407">2025.Day04-Part2</text>
<text y="407" x="208.88526462265793" text-anchor="end">87.5 ms</text>
</g>
<g>
<title>87.5 ms ± 5.0 ms</title>
<rect y="413" rx="5" height="22" width="208.88526462265793" fill="hsl(140, 100%, 80%)" stroke="hsl(140, 100%, 55%)" />
<g stroke="hsl(140, 100%, 40%)"><line x1="196.88298351549122" x2="220.88754572982464" y1="424" y2="424" />
<line x1="196.88298351549122" x2="196.88298351549122" y1="418" y2="430" />
<line x1="220.88754572982464" x2="220.88754572982464" y1="418" y2="430" />
</g>
</g>
<text fill="hsl(160, 100%, 40%)" y="462">2025.Day05-Part1 2.68 ms</text>
<g>
<title>2.68 ms ± 218 μs</title>
<rect y="468" rx="5" height="22" width="6.408727071319087" fill="hsl(160, 100%, 80%)" stroke="hsl(160, 100%, 55%)" />
<g stroke="hsl(160, 100%, 40%)"><line x1="5.889086956648595" x2="6.92836718598958" y1="479" y2="479" />
<line x1="5.889086956648595" x2="5.889086956648595" y1="473" y2="485" />
<line x1="6.92836718598958" x2="6.92836718598958" y1="473" y2="485" />
</g>
</g>
<text fill="hsl(180, 100%, 40%)" y="517">2025.Day05-Part2 824  μs</text>
<g>
<title>824  μs ±  59 μs</title>
<rect y="523" rx="5" height="22" width="1.967003443194142" fill="hsl(180, 100%, 80%)" stroke="hsl(180, 100%, 55%)" />
<g stroke="hsl(180, 100%, 40%)"><line x1="1.8253943467791705" x2="2.1086125396091138" y1="534" y2="534" />
<line x1="1.8253943467791705" x2="1.8253943467791705" y1="528" y2="540" />
<line x1="2.1086125396091138" x2="2.1086125396091138" y1="528" y2="540" />
</g>
</g>
<text fill="hsl(200, 100%, 40%)" y="572">2025.Day06-Part1 4.39 ms</text>
<g>
<title>4.39 ms ± 421 μs</title>
<rect y="578" rx="5" height="22" width="10.489045831222462" fill="hsl(200, 100%, 80%)" stroke="hsl(200, 100%, 55%)" />
<g stroke="hsl(200, 100%, 40%)"><line x1="9.482870991878555" x2="11.49522067056637" y1="589" y2="589" />
<line x1="9.482870991878555" x2="9.482870991878555" y1="583" y2="595" />
<line x1="11.49522067056637" x2="11.49522067056637" y1="583" y2="595" />
</g>
</g>
<text fill="hsl(220, 100%, 40%)" y="627">2025.Day06-Part2 3.51 ms</text>
<g>
<title>3.51 ms ± 229 μs</title>
<rect y="633" rx="5" height="22" width="8.386860028139566" fill="hsl(220, 100%, 80%)" stroke="hsl(220, 100%, 55%)" />
<g stroke="hsl(220, 100%, 40%)"><line x1="7.839537611715027" x2="8.934182444564104" y1="644" y2="644" />
<line x1="7.839537611715027" x2="7.839537611715027" y1="638" y2="650" />
<line x1="8.934182444564104" x2="8.934182444564104" y1="638" y2="650" />
</g>
</g>
<text fill="hsl(240, 100%, 40%)" y="682">2025.Day07-Part1 24.0 ms</text>
<g>
<title>24.0 ms ± 2.0 ms</title>
<rect y="688" rx="5" height="22" width="57.350196211676746" fill="hsl(240, 100%, 80%)" stroke="hsl(240, 100%, 55%)" />
<g stroke="hsl(240, 100%, 40%)"><line x1="52.64790543207968" x2="62.05248699127381" y1="699" y2="699" />
<line x1="52.64790543207968" x2="52.64790543207968" y1="693" y2="705" />
<line x1="62.05248699127381" x2="62.05248699127381" y1="693" y2="705" />
</g>
</g>
<text fill="hsl(260, 100%, 40%)" y="737">2025.Day07-Part2 20.5 ms</text>
<g>
<title>20.5 ms ± 1.9 ms</title>
<rect y="743" rx="5" height="22" width="48.89836589601958" fill="hsl(260, 100%, 80%)" stroke="hsl(260, 100%, 55%)" />
<g stroke="hsl(260, 100%, 40%)"><line x1="44.33930935982688" x2="53.457422432212276" y1="754" y2="754" />
<line x1="44.33930935982688" x2="44.33930935982688" y1="748" y2="760" />
<line x1="53.457422432212276" x2="53.457422432212276" y1="748" y2="760" />
</g>
</g>
<g fill="hsl(280, 100%, 40%)">
<text y="792">2025.Day08-Part1</text>
<text y="792" x="319.0436995841026" text-anchor="end">134  ms</text>
</g>
<g>
<title>134  ms ±  10 ms</title>
<rect y="798" rx="5" height="22" width="319.0436995841026" fill="hsl(280, 100%, 80%)" stroke="hsl(280, 100%, 55%)" />
<g stroke="hsl(280, 100%, 40%)"><line x1="295.01724626959776" x2="343.0701528986075" y1="809" y2="809" />
<line x1="295.01724626959776" x2="295.01724626959776" y1="803" y2="815" />
<line x1="343.0701528986075" x2="343.0701528986075" y1="803" y2="815" />
</g>
</g>
<g fill="hsl(300, 100%, 40%)">
<text y="847">2025.Day08-Part2</text>
<text y="847" x="463.5638136247231" text-anchor="end">194  ms</text>
</g>
<g>
<title>194  ms ±  19 ms</title>
<rect y="853" rx="5" height="22" width="463.5638136247231" fill="hsl(300, 100%, 80%)" stroke="hsl(300, 100%, 55%)" />
<g stroke="hsl(300, 100%, 40%)"><line x1="419.3233551567811" x2="507.8042720926651" y1="864" y2="864" />
<line x1="419.3233551567811" x2="419.3233551567811" y1="858" y2="870" />
<line x1="507.8042720926651" x2="507.8042720926651" y1="858" y2="870" />
</g>
</g>
<text fill="hsl(320, 100%, 40%)" y="902">2025.Day09-Part1 4.65 ms</text>
<g>
<title>4.65 ms ± 283 μs</title>
<rect y="908" rx="5" height="22" width="11.11119045747396" fill="hsl(320, 100%, 80%)" stroke="hsl(320, 100%, 55%)" />
<g stroke="hsl(320, 100%, 40%)"><line x1="10.436519360644358" x2="11.785861554303562" y1="919" y2="919" />
<line x1="10.436519360644358" x2="10.436519360644358" y1="913" y2="925" />
<line x1="11.785861554303562" x2="11.785861554303562" y1="913" y2="925" />
</g>
</g>
<g fill="hsl(340, 100%, 40%)">
<text y="957">2025.Day09-Part2</text>
<text y="957" x="310.7900673041282" text-anchor="end">130  ms</text>
</g>
<g>
<title>130  ms ± 9.1 ms</title>
<rect y="963" rx="5" height="22" width="310.7900673041282" fill="hsl(340, 100%, 80%)" stroke="hsl(340, 100%, 55%)" />
<g stroke="hsl(340, 100%, 40%)"><line x1="289.08312152604054" x2="332.4970130822158" y1="974" y2="974" />
<line x1="289.08312152604054" x2="289.08312152604054" y1="968" y2="980" />
<line x1="332.4970130822158" x2="332.4970130822158" y1="968" y2="980" />
</g>
</g>
</g>
</svg>
