<svg xmlns="http://www.w3.org/2000/svg" height="887" width="960.0" font-size="16" font-family="sans-serif" stroke-width="2">
<g transform="translate(10.0 0)">
<text fill="hsl(0, 100%, 40%)" y="22">2025.Day01-Part1 3.41 ms</text>
<g>
<title>3.41 ms ± 231 μs</title>
<rect y="28" rx="5" height="22" width="8.220305994017494" fill="hsl(0, 100%, 80%)" stroke="hsl(0, 100%, 55%)" />
<g stroke="hsl(0, 100%, 40%)"><line x1="7.66498937548239" x2="8.775622612552597" y1="39" y2="39" />
<line x1="7.66498937548239" x2="7.66498937548239" y1="33" y2="45" />
<line x1="8.775622612552597" x2="8.775622612552597" y1="33" y2="45" />
</g>
</g>
<text fill="hsl(22, 100%, 40%)" y="77">2025.Day01-Part2 3.45 ms</text>
<g>
<title>3.45 ms ± 210 μs</title>
<rect y="83" rx="5" height="22" width="8.313338536382405" fill="hsl(22, 100%, 80%)" stroke="hsl(22, 100%, 55%)" />
<g stroke="hsl(22, 100%, 40%)"><line x1="7.807191232993417" x2="8.819485839771392" y1="94" y2="94" />
<line x1="7.807191232993417" x2="7.807191232993417" y1="88" y2="100" />
<line x1="8.819485839771392" x2="8.819485839771392" y1="88" y2="100" />
</g>
</g>
<g fill="hsl(45, 100%, 40%)">
<text y="132">2025.Day02-Part1</text>
<text y="132" x="368.5587791128422" text-anchor="end">153  ms</text>
</g>
<g>
<title>153  ms ±  14 ms</title>
<rect y="138" rx="5" height="22" width="368.5587791128422" fill="hsl(45, 100%, 80%)" stroke="hsl(45, 100%, 55%)" />
<g stroke="hsl(45, 100%, 40%)"><line x1="335.01840392680054" x2="402.0991542988839" y1="149" y2="149" />
<line x1="335.01840392680054" x2="335.01840392680054" y1="143" y2="155" />
<line x1="402.0991542988839" x2="402.0991542988839" y1="143" y2="155" />
</g>
</g>
<g fill="hsl(67, 100%, 40%)">
<text y="187">2025.Day02-Part2</text>
<text y="187" x="875.3100645407413" text-anchor="end">363  ms</text>
</g>
<g>
<title>363  ms ±  27 ms</title>
<rect y="193" rx="5" height="22" width="875.3100645407413" fill="hsl(67, 100%, 80%)" stroke="hsl(67, 100%, 55%)" />
<g stroke="hsl(67, 100%, 40%)"><line x1="810.6201290814827" x2="940.0" y1="204" y2="204" />
<line x1="810.6201290814827" x2="810.6201290814827" y1="198" y2="210" />
<line x1="940.0" x2="940.0" y1="198" y2="210" />
</g>
</g>
<text fill="hsl(90, 100%, 40%)" y="242">2025.Day03-Part1 36.2 ms</text>
<g>
<title>36.2 ms ± 3.4 ms</title>
<rect y="248" rx="5" height="22" width="87.19154554037964" fill="hsl(90, 100%, 80%)" stroke="hsl(90, 100%, 55%)" />
<g stroke="hsl(90, 100%, 40%)"><line x1="79.03584068940683" x2="95.34725039135245" y1="259" y2="259" />
<line x1="79.03584068940683" x2="79.03584068940683" y1="253" y2="265" />
<line x1="95.34725039135245" x2="95.34725039135245" y1="253" y2="265" />
</g>
</g>
<text fill="hsl(112, 100%, 40%)" y="297">2025.Day03-Part2 24.9 ms</text>
<g>
<title>24.9 ms ± 1.7 ms</title>
<rect y="303" rx="5" height="22" width="59.97217811256723" fill="hsl(112, 100%, 80%)" stroke="hsl(112, 100%, 55%)" />
<g stroke="hsl(112, 100%, 40%)"><line x1="55.78555444979578" x2="64.15880177533867" y1="314" y2="314" />
<line x1="55.78555444979578" x2="55.78555444979578" y1="308" y2="320" />
<line x1="64.15880177533867" x2="64.15880177533867" y1="308" y2="320" />
</g>
</g>
<text fill="hsl(135, 100%, 40%)" y="352">2025.Day04-Part1 7.73 ms</text>
<g>
<title>7.73 ms ± 557 μs</title>
<rect y="358" rx="5" height="22" width="18.61884889558278" fill="hsl(135, 100%, 80%)" stroke="hsl(135, 100%, 55%)" />
<g stroke="hsl(135, 100%, 40%)"><line x1="17.276369660063" x2="19.961328131102558" y1="369" y2="369" />
<line x1="17.276369660063" x2="17.276369660063" y1="363" y2="375" />
<line x1="19.961328131102558" x2="19.961328131102558" y1="363" y2="375" />
</g>
</g>
<g fill="hsl(157, 100%, 40%)">
<text y="407">2025.Day04-Part2</text>
<text y="407" x="208.41461460227038" text-anchor="end">86.5 ms</text>
</g>
<g>
<title>86.5 ms ± 7.5 ms</title>
<rect y="413" rx="5" height="22" width="208.41461460227038" fill="hsl(157, 100%, 80%)" stroke="hsl(157, 100%, 55%)" />
<g stroke="hsl(157, 100%, 40%)"><line x1="190.30766867275963" x2="226.52156053178112" y1="424" y2="424" />
<line x1="190.30766867275963" x2="190.30766867275963" y1="418" y2="430" />
<line x1="226.52156053178112" x2="226.52156053178112" y1="418" y2="430" />
</g>
</g>
<text fill="hsl(180, 100%, 40%)" y="462">2025.Day05-Part1 2.71 ms</text>
<g>
<title>2.71 ms ± 237 μs</title>
<rect y="468" rx="5" height="22" width="6.534492472113424" fill="hsl(180, 100%, 80%)" stroke="hsl(180, 100%, 55%)" />
<g stroke="hsl(180, 100%, 40%)"><line x1="5.964586625255815" x2="7.104398318971033" y1="479" y2="479" />
<line x1="5.964586625255815" x2="5.964586625255815" y1="473" y2="485" />
<line x1="7.104398318971033" x2="7.104398318971033" y1="473" y2="485" />
</g>
</g>
<text fill="hsl(202, 100%, 40%)" y="517">2025.Day05-Part2 818  μs</text>
<g>
<title>818  μs ±  61 μs</title>
<rect y="523" rx="5" height="22" width="1.9701450341959388" fill="hsl(202, 100%, 80%)" stroke="hsl(202, 100%, 55%)" />
<g stroke="hsl(202, 100%, 40%)"><line x1="1.8228643914191716" x2="2.117425676972706" y1="534" y2="534" />
<line x1="1.8228643914191716" x2="1.8228643914191716" y1="528" y2="540" />
<line x1="2.117425676972706" x2="2.117425676972706" y1="528" y2="540" />
</g>
</g>
<text fill="hsl(225, 100%, 40%)" y="572">2025.Day06-Part1 4.39 ms</text>
<g>
<title>4.39 ms ± 241 μs</title>
<rect y="578" rx="5" height="22" width="10.562347901195153" fill="hsl(225, 100%, 80%)" stroke="hsl(225, 100%, 55%)" />
<g stroke="hsl(225, 100%, 40%)"><line x1="9.98259814173244" x2="11.142097660657866" y1="589" y2="589" />
<line x1="9.98259814173244" x2="9.98259814173244" y1="583" y2="595" />
<line x1="11.142097660657866" x2="11.142097660657866" y1="583" y2="595" />
</g>
</g>
<text fill="hsl(247, 100%, 40%)" y="627">2025.Day06-Part2 3.85 ms</text>
<g>
<title>3.85 ms ± 250 μs</title>
<rect y="633" rx="5" height="22" width="9.278032307887813" fill="hsl(247, 100%, 80%)" stroke="hsl(247, 100%, 55%)" />
<g stroke="hsl(247, 100%, 40%)"><line x1="8.677113824340383" x2="9.878950791435242" y1="644" y2="644" />
<line x1="8.677113824340383" x2="8.677113824340383" y1="638" y2="650" />
<line x1="9.878950791435242" x2="9.878950791435242" y1="638" y2="650" />
</g>
</g>
<text fill="hsl(270, 100%, 40%)" y="682">2025.Day07-Part1 23.8 ms</text>
<g>
<title>23.8 ms ± 2.0 ms</title>
<rect y="688" rx="5" height="22" width="57.40800957386914" fill="hsl(270, 100%, 80%)" stroke="hsl(270, 100%, 55%)" />
<g stroke="hsl(270, 100%, 40%)"><line x1="52.708086686832885" x2="62.10793246090539" y1="699" y2="699" />
<line x1="52.708086686832885" x2="52.708086686832885" y1="693" y2="705" />
<line x1="62.10793246090539" x2="62.10793246090539" y1="693" y2="705" />
</g>
</g>
<text fill="hsl(292, 100%, 40%)" y="737">2025.Day07-Part2 20.2 ms</text>
<g>
<title>20.2 ms ± 1.9 ms</title>
<rect y="743" rx="5" height="22" width="48.635822179048056" fill="hsl(292, 100%, 80%)" stroke="hsl(292, 100%, 55%)" />
<g stroke="hsl(292, 100%, 40%)"><line x1="44.11022984733807" x2="53.16141451075804" y1="754" y2="754" />
<line x1="44.11022984733807" x2="44.11022984733807" y1="748" y2="760" />
<line x1="53.16141451075804" x2="53.16141451075804" y1="748" y2="760" />
</g>
</g>
<g fill="hsl(315, 100%, 40%)">
<text y="792">2025.Day08-Part1</text>
<text y="792" x="333.4812879218008" text-anchor="end">138  ms</text>
</g>
<g>
<title>138  ms ± 3.4 ms</title>
<rect y="798" rx="5" height="22" width="333.4812879218008" fill="hsl(315, 100%, 80%)" stroke="hsl(315, 100%, 55%)" />
<g stroke="hsl(315, 100%, 40%)"><line x1="325.36381493059497" x2="341.59876091300663" y1="809" y2="809" />
<line x1="325.36381493059497" x2="325.36381493059497" y1="803" y2="815" />
<line x1="341.59876091300663" x2="341.59876091300663" y1="803" y2="815" />
</g>
</g>
<g fill="hsl(337, 100%, 40%)">
<text y="847">2025.Day08-Part2</text>
<text y="847" x="501.83149060292334" text-anchor="end">208  ms</text>
</g>
<g>
<title>208  ms ±  20 ms</title>
<rect y="853" rx="5" height="22" width="501.83149060292334" fill="hsl(337, 100%, 80%)" stroke="hsl(337, 100%, 55%)" />
<g stroke="hsl(337, 100%, 40%)"><line x1="453.00926542661153" x2="550.6537157792352" y1="864" y2="864" />
<line x1="453.00926542661153" x2="453.00926542661153" y1="858" y2="870" />
<line x1="550.6537157792352" x2="550.6537157792352" y1="858" y2="870" />
</g>
</g>
</g>
</svg>
