<svg xmlns="http://www.w3.org/2000/svg" height="1272" width="960.0" font-size="16" font-family="sans-serif" stroke-width="2">
<g transform="translate(10.0 0)">
<text fill="hsl(0, 100%, 40%)" y="22">2025.Day01-Part1 3.54 ms</text>
<g>
<title>3.54 ms ± 265 μs</title>
<rect y="28" rx="5" height="22" width="0.9399406373780839" fill="hsl(0, 100%, 80%)" stroke="hsl(0, 100%, 55%)" />
<g stroke="hsl(0, 100%, 40%)"><line x1="0.8696957309153418" x2="1.010185543840826" y1="39" y2="39" />
<line x1="0.8696957309153418" x2="0.8696957309153418" y1="33" y2="45" />
<line x1="1.010185543840826" x2="1.010185543840826" y1="33" y2="45" />
</g>
</g>
<text fill="hsl(15, 100%, 40%)" y="77">2025.Day01-Part2 3.52 ms</text>
<g>
<title>3.52 ms ± 230 μs</title>
<rect y="83" rx="5" height="22" width="0.9355217190009998" fill="hsl(15, 100%, 80%)" stroke="hsl(15, 100%, 55%)" />
<g stroke="hsl(15, 100%, 40%)"><line x1="0.874343368113129" x2="0.9967000698888706" y1="94" y2="94" />
<line x1="0.874343368113129" x2="0.874343368113129" y1="88" y2="100" />
<line x1="0.9967000698888706" x2="0.9967000698888706" y1="88" y2="100" />
</g>
</g>
<text fill="hsl(31, 100%, 40%)" y="132">2025.Day02-Part1 157  ms</text>
<g>
<title>157  ms ±  15 ms</title>
<rect y="138" rx="5" height="22" width="41.70282531832683" fill="hsl(31, 100%, 80%)" stroke="hsl(31, 100%, 55%)" />
<g stroke="hsl(31, 100%, 40%)"><line x1="37.660007838743724" x2="45.74564279790994" y1="149" y2="149" />
<line x1="37.660007838743724" x2="37.660007838743724" y1="143" y2="155" />
<line x1="45.74564279790994" x2="45.74564279790994" y1="143" y2="155" />
</g>
</g>
<text fill="hsl(46, 100%, 40%)" y="187">2025.Day02-Part2 374  ms</text>
<g>
<title>374  ms ±  15 ms</title>
<rect y="193" rx="5" height="22" width="99.36098832528866" fill="hsl(46, 100%, 80%)" stroke="hsl(46, 100%, 55%)" />
<g stroke="hsl(46, 100%, 40%)"><line x1="95.44937350057504" x2="103.27260315000228" y1="204" y2="204" />
<line x1="95.44937350057504" x2="95.44937350057504" y1="198" y2="210" />
<line x1="103.27260315000228" x2="103.27260315000228" y1="198" y2="210" />
</g>
</g>
<text fill="hsl(62, 100%, 40%)" y="242">2025.Day03-Part1 36.6 ms</text>
<g>
<title>36.6 ms ± 3.5 ms</title>
<rect y="248" rx="5" height="22" width="9.7081125391899" fill="hsl(62, 100%, 80%)" stroke="hsl(62, 100%, 55%)" />
<g stroke="hsl(62, 100%, 40%)"><line x1="8.779454313668579" x2="10.63677076471122" y1="259" y2="259" />
<line x1="8.779454313668579" x2="8.779454313668579" y1="253" y2="265" />
<line x1="10.63677076471122" x2="10.63677076471122" y1="253" y2="265" />
</g>
</g>
<text fill="hsl(78, 100%, 40%)" y="297">2025.Day03-Part2 25.1 ms</text>
<g>
<title>25.1 ms ± 1.7 ms</title>
<rect y="303" rx="5" height="22" width="6.665809371016989" fill="hsl(78, 100%, 80%)" stroke="hsl(78, 100%, 55%)" />
<g stroke="hsl(78, 100%, 40%)"><line x1="6.205888274135278" x2="7.1257304678987" y1="314" y2="314" />
<line x1="6.205888274135278" x2="6.205888274135278" y1="308" y2="320" />
<line x1="7.1257304678987" x2="7.1257304678987" y1="308" y2="320" />
</g>
</g>
<text fill="hsl(93, 100%, 40%)" y="352">2025.Day04-Part1 7.73 ms</text>
<g>
<title>7.73 ms ± 441 μs</title>
<rect y="358" rx="5" height="22" width="2.051207691210818" fill="hsl(93, 100%, 80%)" stroke="hsl(93, 100%, 55%)" />
<g stroke="hsl(93, 100%, 40%)"><line x1="1.934075345260891" x2="2.1683400371607453" y1="369" y2="369" />
<line x1="1.934075345260891" x2="1.934075345260891" y1="363" y2="375" />
<line x1="2.1683400371607453" x2="2.1683400371607453" y1="363" y2="375" />
</g>
</g>
<text fill="hsl(109, 100%, 40%)" y="407">2025.Day04-Part2 87.6 ms</text>
<g>
<title>87.6 ms ± 7.9 ms</title>
<rect y="413" rx="5" height="22" width="23.263162892392312" fill="hsl(109, 100%, 80%)" stroke="hsl(109, 100%, 55%)" />
<g stroke="hsl(109, 100%, 40%)"><line x1="21.165763454390785" x2="25.36056233039384" y1="424" y2="424" />
<line x1="21.165763454390785" x2="21.165763454390785" y1="418" y2="430" />
<line x1="25.36056233039384" x2="25.36056233039384" y1="418" y2="430" />
</g>
</g>
<text fill="hsl(125, 100%, 40%)" y="462">2025.Day05-Part1 2.68 ms</text>
<g>
<title>2.68 ms ± 232 μs</title>
<rect y="468" rx="5" height="22" width="0.7112060353460845" fill="hsl(125, 100%, 80%)" stroke="hsl(125, 100%, 55%)" />
<g stroke="hsl(125, 100%, 40%)"><line x1="0.6496436507051128" x2="0.7727684199870563" y1="479" y2="479" />
<line x1="0.6496436507051128" x2="0.6496436507051128" y1="473" y2="485" />
<line x1="0.7727684199870563" x2="0.7727684199870563" y1="473" y2="485" />
</g>
</g>
<text fill="hsl(140, 100%, 40%)" y="517">2025.Day05-Part2 818  μs</text>
<g>
<title>818  μs ±  54 μs</title>
<rect y="523" rx="5" height="22" width="0.21711015429776814" fill="hsl(140, 100%, 80%)" stroke="hsl(140, 100%, 55%)" />
<g stroke="hsl(140, 100%, 40%)"><line x1="0.20276452119228983" x2="0.23145578740324646" y1="534" y2="534" />
<line x1="0.20276452119228983" x2="0.20276452119228983" y1="528" y2="540" />
<line x1="0.23145578740324646" x2="0.23145578740324646" y1="528" y2="540" />
</g>
</g>
<text fill="hsl(156, 100%, 40%)" y="572">2025.Day06-Part1 4.13 ms</text>
<g>
<title>4.13 ms ± 252 μs</title>
<rect y="578" rx="5" height="22" width="1.0954117170512259" fill="hsl(156, 100%, 80%)" stroke="hsl(156, 100%, 55%)" />
<g stroke="hsl(156, 100%, 40%)"><line x1="1.0284431673921333" x2="1.1623802667103185" y1="589" y2="589" />
<line x1="1.0284431673921333" x2="1.0284431673921333" y1="583" y2="595" />
<line x1="1.1623802667103185" x2="1.1623802667103185" y1="583" y2="595" />
</g>
</g>
<text fill="hsl(172, 100%, 40%)" y="627">2025.Day06-Part2 3.81 ms</text>
<g>
<title>3.81 ms ± 305 μs</title>
<rect y="633" rx="5" height="22" width="1.0107549203277217" fill="hsl(172, 100%, 80%)" stroke="hsl(172, 100%, 55%)" />
<g stroke="hsl(172, 100%, 40%)"><line x1="0.9296902630995622" x2="1.0918195775558812" y1="644" y2="644" />
<line x1="0.9296902630995622" x2="0.9296902630995622" y1="638" y2="650" />
<line x1="1.0918195775558812" x2="1.0918195775558812" y1="638" y2="650" />
</g>
</g>
<text fill="hsl(187, 100%, 40%)" y="682">2025.Day07-Part1 23.6 ms</text>
<g>
<title>23.6 ms ± 1.7 ms</title>
<rect y="688" rx="5" height="22" width="6.26457226758054" fill="hsl(187, 100%, 80%)" stroke="hsl(187, 100%, 55%)" />
<g stroke="hsl(187, 100%, 40%)"><line x1="5.817207458644419" x2="6.711937076516661" y1="699" y2="699" />
<line x1="5.817207458644419" x2="5.817207458644419" y1="693" y2="705" />
<line x1="6.711937076516661" x2="6.711937076516661" y1="693" y2="705" />
</g>
</g>
<text fill="hsl(203, 100%, 40%)" y="737">2025.Day07-Part2 20.4 ms</text>
<g>
<title>20.4 ms ± 1.0 ms</title>
<rect y="743" rx="5" height="22" width="5.406677401018202" fill="hsl(203, 100%, 80%)" stroke="hsl(203, 100%, 55%)" />
<g stroke="hsl(203, 100%, 40%)"><line x1="5.136747591370112" x2="5.676607210666292" y1="754" y2="754" />
<line x1="5.136747591370112" x2="5.136747591370112" y1="748" y2="760" />
<line x1="5.676607210666292" x2="5.676607210666292" y1="748" y2="760" />
</g>
</g>
<text fill="hsl(219, 100%, 40%)" y="792">2025.Day08-Part1 134  ms</text>
<g>
<title>134  ms ±  12 ms</title>
<rect y="798" rx="5" height="22" width="35.59839274584603" fill="hsl(219, 100%, 80%)" stroke="hsl(219, 100%, 55%)" />
<g stroke="hsl(219, 100%, 40%)"><line x1="32.44923648763896" x2="38.74754900405309" y1="809" y2="809" />
<line x1="32.44923648763896" x2="32.44923648763896" y1="803" y2="815" />
<line x1="38.74754900405309" x2="38.74754900405309" y1="803" y2="815" />
</g>
</g>
<text fill="hsl(234, 100%, 40%)" y="847">2025.Day08-Part2 197  ms</text>
<g>
<title>197  ms ±  19 ms</title>
<rect y="853" rx="5" height="22" width="52.30570655647997" fill="hsl(234, 100%, 80%)" stroke="hsl(234, 100%, 55%)" />
<g stroke="hsl(234, 100%, 40%)"><line x1="47.28308542350633" x2="57.32832768945361" y1="864" y2="864" />
<line x1="47.28308542350633" x2="47.28308542350633" y1="858" y2="870" />
<line x1="57.32832768945361" x2="57.32832768945361" y1="858" y2="870" />
</g>
</g>
<text fill="hsl(250, 100%, 40%)" y="902">2025.Day09-Part1 5.07 ms</text>
<g>
<title>5.07 ms ± 254 μs</title>
<rect y="908" rx="5" height="22" width="1.34541744446677" fill="hsl(250, 100%, 80%)" stroke="hsl(250, 100%, 55%)" />
<g stroke="hsl(250, 100%, 40%)"><line x1="1.2779015933307036" x2="1.4129332956028362" y1="919" y2="919" />
<line x1="1.2779015933307036" x2="1.2779015933307036" y1="913" y2="925" />
<line x1="1.4129332956028362" x2="1.4129332956028362" y1="913" y2="925" />
</g>
</g>
<text fill="hsl(266, 100%, 40%)" y="957">2025.Day09-Part2 135  ms</text>
<g>
<title>135  ms ± 7.7 ms</title>
<rect y="963" rx="5" height="22" width="35.82199700220361" fill="hsl(266, 100%, 80%)" stroke="hsl(266, 100%, 55%)" />
<g stroke="hsl(266, 100%, 40%)"><line x1="33.78081885791155" x2="37.86317514649567" y1="974" y2="974" />
<line x1="33.78081885791155" x2="33.78081885791155" y1="968" y2="980" />
<line x1="37.86317514649567" x2="37.86317514649567" y1="968" y2="980" />
</g>
</g>
<g fill="hsl(281, 100%, 40%)">
<text y="1012">2025.Day10-Part1</text>
<text y="1012" x="902.9762032890937" text-anchor="end">3.401 s</text>
</g>
<g>
<title>3.401 s ± 139 ms</title>
<rect y="1018" rx="5" height="22" width="902.9762032890937" fill="hsl(281, 100%, 80%)" stroke="hsl(281, 100%, 55%)" />
<g stroke="hsl(281, 100%, 40%)"><line x1="865.9524065781875" x2="940.0" y1="1029" y2="1029" />
<line x1="865.9524065781875" x2="865.9524065781875" y1="1023" y2="1035" />
<line x1="940.0" x2="940.0" y1="1023" y2="1035" />
</g>
</g>
<text fill="hsl(297, 100%, 40%)" y="1067">2025.Day10-Part2 616  ms</text>
<g>
<title>616  ms ±  33 ms</title>
<rect y="1073" rx="5" height="22" width="163.57894304927842" fill="hsl(297, 100%, 80%)" stroke="hsl(297, 100%, 55%)" />
<g stroke="hsl(297, 100%, 40%)"><line x1="154.77401022564175" x2="172.3838758729151" y1="1084" y2="1084" />
<line x1="154.77401022564175" x2="154.77401022564175" y1="1078" y2="1090" />
<line x1="172.3838758729151" x2="172.3838758729151" y1="1078" y2="1090" />
</g>
</g>
<text fill="hsl(313, 100%, 40%)" y="1122">2025.Day11-Part1 160  μs</text>
<g>
<title>160  μs ±  15 μs</title>
<rect y="1128" rx="5" height="22" width="0.04247297142360528" fill="hsl(313, 100%, 80%)" stroke="hsl(313, 100%, 55%)" />
<g stroke="hsl(313, 100%, 40%)"><line x1="0.03860526295119434" x2="0.04634067989601622" y1="1139" y2="1139" />
<line x1="0.03860526295119434" x2="0.03860526295119434" y1="1133" y2="1145" />
<line x1="0.04634067989601622" x2="0.04634067989601622" y1="1133" y2="1145" />
</g>
</g>
<text fill="hsl(328, 100%, 40%)" y="1177">2025.Day11-Part2 898  μs</text>
<g>
<title>898  μs ±  57 μs</title>
<rect y="1183" rx="5" height="22" width="0.2384325127141425" fill="hsl(328, 100%, 80%)" stroke="hsl(328, 100%, 55%)" />
<g stroke="hsl(328, 100%, 40%)"><line x1="0.22318917581351433" x2="0.2536758496147707" y1="1194" y2="1194" />
<line x1="0.22318917581351433" x2="0.22318917581351433" y1="1188" y2="1200" />
<line x1="0.2536758496147707" x2="0.2536758496147707" y1="1188" y2="1200" />
</g>
</g>
<text fill="hsl(344, 100%, 40%)" y="1232">2025.Day12-Part1 8.93 ms</text>
<g>
<title>8.93 ms ± 538 μs</title>
<rect y="1238" rx="5" height="22" width="2.370474110990774" fill="hsl(344, 100%, 80%)" stroke="hsl(344, 100%, 55%)" />
<g stroke="hsl(344, 100%, 40%)"><line x1="2.2277097821803897" x2="2.5132384398011585" y1="1249" y2="1249" />
<line x1="2.2277097821803897" x2="2.2277097821803897" y1="1243" y2="1255" />
<line x1="2.5132384398011585" x2="2.5132384398011585" y1="1243" y2="1255" />
</g>
</g>
</g>
</svg>
