<svg xmlns="http://www.w3.org/2000/svg" height="777" width="960.0" font-size="16" font-family="sans-serif" stroke-width="2">
<g transform="translate(10.0 0)">
<text fill="hsl(0, 100%, 40%)" y="22">2025.Day01-Part1 3.47 ms</text>
<g>
<title>3.47 ms ± 246 μs</title>
<rect y="28" rx="5" height="22" width="8.040152015216975" fill="hsl(0, 100%, 80%)" stroke="hsl(0, 100%, 55%)" />
<g stroke="hsl(0, 100%, 40%)"><line x1="7.469715961329967" x2="8.610588069103985" y1="39" y2="39" />
<line x1="7.469715961329967" x2="7.469715961329967" y1="33" y2="45" />
<line x1="8.610588069103985" x2="8.610588069103985" y1="33" y2="45" />
</g>
</g>
<text fill="hsl(25, 100%, 40%)" y="77">2025.Day01-Part2 3.48 ms</text>
<g>
<title>3.48 ms ± 230 μs</title>
<rect y="83" rx="5" height="22" width="8.050656278533069" fill="hsl(25, 100%, 80%)" stroke="hsl(25, 100%, 55%)" />
<g stroke="hsl(25, 100%, 40%)"><line x1="7.517710785425919" x2="8.583601771640218" y1="94" y2="94" />
<line x1="7.517710785425919" x2="7.517710785425919" y1="88" y2="100" />
<line x1="8.583601771640218" x2="8.583601771640218" y1="88" y2="100" />
</g>
</g>
<g fill="hsl(51, 100%, 40%)">
<text y="132">2025.Day02-Part1</text>
<text y="132" x="365.94245991358633" text-anchor="end">158  ms</text>
</g>
<g>
<title>158  ms ±  14 ms</title>
<rect y="138" rx="5" height="22" width="365.94245991358633" fill="hsl(51, 100%, 80%)" stroke="hsl(51, 100%, 55%)" />
<g stroke="hsl(51, 100%, 40%)"><line x1="332.7839673510553" x2="399.10095247611736" y1="149" y2="149" />
<line x1="332.7839673510553" x2="332.7839673510553" y1="143" y2="155" />
<line x1="399.10095247611736" x2="399.10095247611736" y1="143" y2="155" />
</g>
</g>
<g fill="hsl(77, 100%, 40%)">
<text y="187">2025.Day02-Part2</text>
<text y="187" x="877.383640460152" text-anchor="end">379  ms</text>
</g>
<g>
<title>379  ms ±  27 ms</title>
<rect y="193" rx="5" height="22" width="877.383640460152" fill="hsl(77, 100%, 80%)" stroke="hsl(77, 100%, 55%)" />
<g stroke="hsl(77, 100%, 40%)"><line x1="814.7672809203041" x2="940.0" y1="204" y2="204" />
<line x1="814.7672809203041" x2="814.7672809203041" y1="198" y2="210" />
<line x1="940.0" x2="940.0" y1="198" y2="210" />
</g>
</g>
<text fill="hsl(102, 100%, 40%)" y="242">2025.Day03-Part1 36.4 ms</text>
<g>
<title>36.4 ms ± 3.6 ms</title>
<rect y="248" rx="5" height="22" width="84.37607154220952" fill="hsl(102, 100%, 80%)" stroke="hsl(102, 100%, 55%)" />
<g stroke="hsl(102, 100%, 40%)"><line x1="75.9784446577034" x2="92.77369842671563" y1="259" y2="259" />
<line x1="75.9784446577034" x2="75.9784446577034" y1="253" y2="265" />
<line x1="92.77369842671563" x2="92.77369842671563" y1="253" y2="265" />
</g>
</g>
<text fill="hsl(128, 100%, 40%)" y="297">2025.Day03-Part2 25.1 ms</text>
<g>
<title>25.1 ms ± 1.8 ms</title>
<rect y="303" rx="5" height="22" width="58.085344030778806" fill="hsl(128, 100%, 80%)" stroke="hsl(128, 100%, 55%)" />
<g stroke="hsl(128, 100%, 40%)"><line x1="53.97174214834736" x2="62.19894591321025" y1="314" y2="314" />
<line x1="53.97174214834736" x2="53.97174214834736" y1="308" y2="320" />
<line x1="62.19894591321025" x2="62.19894591321025" y1="308" y2="320" />
</g>
</g>
<text fill="hsl(154, 100%, 40%)" y="352">2025.Day04-Part1 7.70 ms</text>
<g>
<title>7.70 ms ± 496 μs</title>
<rect y="358" rx="5" height="22" width="17.833047200904154" fill="hsl(154, 100%, 80%)" stroke="hsl(154, 100%, 55%)" />
<g stroke="hsl(154, 100%, 40%)"><line x1="16.683789947364975" x2="18.982304454443334" y1="369" y2="369" />
<line x1="16.683789947364975" x2="16.683789947364975" y1="363" y2="375" />
<line x1="18.982304454443334" x2="18.982304454443334" y1="363" y2="375" />
</g>
</g>
<g fill="hsl(180, 100%, 40%)">
<text y="407">2025.Day04-Part2</text>
<text y="407" x="204.554163157117" text-anchor="end">88.3 ms</text>
</g>
<g>
<title>88.3 ms ± 6.7 ms</title>
<rect y="413" rx="5" height="22" width="204.554163157117" fill="hsl(180, 100%, 80%)" stroke="hsl(180, 100%, 55%)" />
<g stroke="hsl(180, 100%, 40%)"><line x1="188.96689605789848" x2="220.1414302563355" y1="424" y2="424" />
<line x1="188.96689605789848" x2="188.96689605789848" y1="418" y2="430" />
<line x1="220.1414302563355" x2="220.1414302563355" y1="418" y2="430" />
</g>
</g>
<text fill="hsl(205, 100%, 40%)" y="462">2025.Day05-Part1 2.70 ms</text>
<g>
<title>2.70 ms ± 266 μs</title>
<rect y="468" rx="5" height="22" width="6.257057952218878" fill="hsl(205, 100%, 80%)" stroke="hsl(205, 100%, 55%)" />
<g stroke="hsl(205, 100%, 40%)"><line x1="5.6412480198315595" x2="6.872867884606196" y1="479" y2="479" />
<line x1="5.6412480198315595" x2="5.6412480198315595" y1="473" y2="485" />
<line x1="6.872867884606196" x2="6.872867884606196" y1="473" y2="485" />
</g>
</g>
<text fill="hsl(231, 100%, 40%)" y="517">2025.Day05-Part2 876  μs</text>
<g>
<title>876  μs ±  85 μs</title>
<rect y="523" rx="5" height="22" width="2.02878876928979" fill="hsl(231, 100%, 80%)" stroke="hsl(231, 100%, 55%)" />
<g stroke="hsl(231, 100%, 40%)"><line x1="1.8311134846002297" x2="2.2264640539793503" y1="534" y2="534" />
<line x1="1.8311134846002297" x2="1.8311134846002297" y1="528" y2="540" />
<line x1="2.2264640539793503" x2="2.2264640539793503" y1="528" y2="540" />
</g>
</g>
<text fill="hsl(257, 100%, 40%)" y="572">2025.Day06-Part1 4.37 ms</text>
<g>
<title>4.37 ms ± 242 μs</title>
<rect y="578" rx="5" height="22" width="10.118433369240375" fill="hsl(257, 100%, 80%)" stroke="hsl(257, 100%, 55%)" />
<g stroke="hsl(257, 100%, 40%)"><line x1="9.558697360270495" x2="10.678169378210255" y1="589" y2="589" />
<line x1="9.558697360270495" x2="9.558697360270495" y1="583" y2="595" />
<line x1="10.678169378210255" x2="10.678169378210255" y1="583" y2="595" />
</g>
</g>
<text fill="hsl(282, 100%, 40%)" y="627">2025.Day06-Part2 3.79 ms</text>
<g>
<title>3.79 ms ± 225 μs</title>
<rect y="633" rx="5" height="22" width="8.773097987072175" fill="hsl(282, 100%, 80%)" stroke="hsl(282, 100%, 55%)" />
<g stroke="hsl(282, 100%, 40%)"><line x1="8.251467634064479" x2="9.294728340079871" y1="644" y2="644" />
<line x1="8.251467634064479" x2="8.251467634064479" y1="638" y2="650" />
<line x1="9.294728340079871" x2="9.294728340079871" y1="638" y2="650" />
</g>
</g>
<text fill="hsl(308, 100%, 40%)" y="682">2025.Day07-Part1 23.8 ms</text>
<g>
<title>23.8 ms ± 921 μs</title>
<rect y="688" rx="5" height="22" width="55.17930324514541" fill="hsl(308, 100%, 80%)" stroke="hsl(308, 100%, 55%)" />
<g stroke="hsl(308, 100%, 40%)"><line x1="53.04680916356163" x2="57.31179732672919" y1="699" y2="699" />
<line x1="53.04680916356163" x2="53.04680916356163" y1="693" y2="705" />
<line x1="57.31179732672919" x2="57.31179732672919" y1="693" y2="705" />
</g>
</g>
<text fill="hsl(334, 100%, 40%)" y="737">2025.Day07-Part2 20.2 ms</text>
<g>
<title>20.2 ms ± 1.7 ms</title>
<rect y="743" rx="5" height="22" width="46.862210692382874" fill="hsl(334, 100%, 80%)" stroke="hsl(334, 100%, 55%)" />
<g stroke="hsl(334, 100%, 40%)"><line x1="42.97717835854363" x2="50.747243026222115" y1="754" y2="754" />
<line x1="42.97717835854363" x2="42.97717835854363" y1="748" y2="760" />
<line x1="50.747243026222115" x2="50.747243026222115" y1="748" y2="760" />
</g>
</g>
</g>
</svg>
