<?xml version="1.0" encoding="UTF-8"?>
<!DOCTYPE svg PUBLIC "-//W3C//DTD SVG 1.1//EN"
    "http://www.w3.org/Graphics/SVG/1.1/DTD/svg11.dtd">
<svg xmlns="http://www.w3.org/2000/svg" xmlns:xlink="http://www.w3.org/1999/xlink" version="1.1" width="1080" height="920" viewBox="0 0 98415 98315"><path d="M 97924,50397 L 97924,51628 M 97924,51628 L 98415,51628 M 98415,51628 L 98415,52850 M 98415,52850 L 98292,52850 M 98292,52850 L 98292,54078 M 98292,54078 L 98276,54078 M 98276,54078 L 98276,55288 M 98276,55288 L 98043,55288 M 98043,55288 L 98043,56423 M 98043,56423 L 97303,56423 M 97303,56423 L 97303,57711 M 97303,57711 L 97692,57711 M 97692,57711 L 97692,58821 M 97692,58821 L 96973,58821 M 96973,58821 L 96973,60116 M 96973,60116 L 97239,60116 M 97239,60116 L 97239,61228 M 97239,61228 L 96629,61228 M 96629,61228 L 96629,62473 M 96629,62473 L 96581,62473 M 96581,62473 L 96581,63611 M 96581,63611 L 96121,63611 M 96121,63611 L 96121,64861 M 96121,64861 L 96028,64861 M 96028,64861 L 96028,65764 M 96028,65764 L 94900,65764 M 94900,65764 L 94900,67161 M 94900,67161 L 95183,67161 M 95183,67161 L 95183,68139 M 95183,68139 L 94341,68139 M 94341,68139 L 94341,69483 M 94341,69483 L 94384,69483 M 94384,69483 L 94384,70602 M 94384,70602 L 93878,70602 M 93878,70602 L 93878,71361 M 93878,71361 L 92651,71361 M 92651,71361 L 92651,72634 M 92651,72634 L 92470,72634 M 92470,72634 L 92470,73502 M 92470,73502 L 91529,73502 M 91529,73502 L 91529,74935 M 91529,74935 L 91566,74935 M 91566,74935 L 91566,75703 M 91566,75703 L 90486,75703 M 90486,75703 L 90486,76625 M 90486,76625 L 89679,76625 M 89679,76625 L 89679,77482 M 89679,77482 L 88795,77482 M 88795,77482 L 88795,78448 M 88795,78448 L 88075,78448 M 88075,78448 L 88075,79469 M 88075,79469 L 87427,79469 M 87427,79469 L 87427,80940 M 87427,80940 L 87309,80940 M 87309,80940 L 87309,81352 M 87309,81352 L 85915,81352 M 85915,81352 L 85915,82359 M 85915,82359 L 85225,82359 M 85225,82359 L 85225,83372 M 85225,83372 L 84529,83372 M 84529,83372 L 84529,84413 M 84529,84413 L 83848,84413 M 83848,84413 L 83848,84973 M 83848,84973 L 82697,84973 M 82697,84973 L 82697,85857 M 82697,85857 L 81860,85857 M 81860,85857 L 81860,86358 M 81860,86358 L 80693,86358 M 80693,86358 L 80693,87278 M 80693,87278 L 79886,87278 M 79886,87278 L 79886,88018 M 79886,88018 L 78928,88018 M 78928,88018 L 78928,89234 M 78928,89234 L 78313,89234 M 78313,89234 L 78313,89561 M 78313,89561 L 77051,89561 M 77051,89561 L 77051,90688 M 77051,90688 L 76335,90688 M 76335,90688 L 76335,91332 M 76335,91332 L 75289,91332 M 75289,91332 L 75289,91489 M 75289,91489 L 73962,91489 M 73962,91489 L 73962,92160 M 73962,92160 L 72945,92160 M 72945,92160 L 72945,92340 M 72945,92340 L 71672,92340 M 71672,92340 L 71672,93077 M 71672,93077 L 70689,93077 M 70689,93077 L 70689,93624 M 70689,93624 L 69607,93624 M 69607,93624 L 69607,94386 M 69607,94386 L 68613,94386 M 68613,94386 L 68613,94825 M 68613,94825 L 67476,94825 M 67476,94825 L 67476,95271 M 67476,95271 L 66341,95271 M 66341,95271 L 66341,95771 M 66341,95771 L 65222,95771 M 65222,95771 L 65222,96253 M 65222,96253 L 64092,96253 M 64092,96253 L 64092,96442 M 64092,96442 L 62873,96442 M 62873,96442 L 62873,96830 M 62873,96830 L 61712,96830 M 61712,96830 L 61712,97260 M 61712,97260 L 60555,97260 M 60555,97260 L 60555,97242 M 60555,97242 L 59301,97242 M 59301,97242 L 59301,97199 M 59301,97199 L 58056,97199 M 58056,97199 L 58056,97224 M 58056,97224 L 56834,97224 M 56834,97224 L 56834,97907 M 56834,97907 L 55698,97907 M 55698,97907 L 55698,97847 M 55698,97847 L 54465,97847 M 54465,97847 L 54465,97941 M 54465,97941 L 53251,97941 M 53251,97941 L 53251,98315 M 53251,98315 L 52049,98315 M 52049,98315 L 52049,97884 M 52049,97884 L 50816,97884 M 50816,97884 L 50816,98050 M 50816,98050 L 49601,98050 M 49601,98050 L 49601,97738 M 49601,97738 L 48394,97738 M 48394,97738 L 48394,97503 M 48394,97503 L 47196,97503 M 47196,97503 L 47196,97878 M 47196,97878 L 45954,97878 M 45954,97878 L 45954,97660 M 45954,97660 L 44754,97660 M 44754,97660 L 44754,97727 M 44754,97727 L 43519,97727 M 43519,97727 L 43519,97225 M 43519,97225 L 42364,97225 M 42364,97225 L 42364,97121 M 42364,97121 L 41150,97121 M 41150,97121 L 41150,97347 M 41150,97347 L 39860,97347 M 39860,97347 L 39860,96656 M 39860,96656 L 38765,96656 M 38765,96656 L 38765,95899 M 38765,95899 L 37709,95899 M 37709,95899 L 37709,96368 M 37709,96368 L 36315,96368 M 36315,96368 L 36315,95856 M 36315,95856 L 35193,95856 M 35193,95856 L 35193,94957 M 35193,94957 L 34215,94957 M 34215,94957 L 34215,94420 M 34215,94420 L 33128,94420 M 33128,94420 L 33128,94259 M 33128,94259 L 31893,94259 M 31893,94259 L 31893,94403 M 31893,94403 L 30507,94403 M 30507,94403 L 30507,93364 M 30507,93364 L 29638,93364 M 29638,93364 L 29638,92743 M 29638,92743 L 28592,92743 M 28592,92743 L 28592,92645 M 28592,92645 L 27272,92645 M 27272,92645 L 27272,91967 M 27272,91967 L 26249,91967 M 26249,91967 L 26249,91324 M 26249,91324 L 25210,91324 M 25210,91324 L 25210,90253 M 25210,90253 L 24444,90253 M 24444,90253 L 24444,90070 M 24444,90070 L 23112,90070 M 23112,90070 L 23112,89351 M 23112,89351 L 22123,89351 M 22123,89351 L 22123,88789 M 22123,88789 L 21018,88789 M 21018,88789 L 21018,87886 M 21018,87886 L 20168,87886 M 20168,87886 L 20168,86962 M 20168,86962 L 19347,86962 M 19347,86962 L 19347,86043 M 19347,86043 L 18535,86043 M 18535,86043 L 18535,85116 M 18535,85116 L 17740,85116 M 17740,85116 L 17740,84601 M 17740,84601 L 16558,84601 M 16558,84601 L 16558,83509 M 16558,83509 L 15930,83509 M 15930,83509 L 15930,82715 M 15930,82715 L 15007,82715 M 15007,82715 L 15007,82025 M 15007,82025 L 13957,82025 M 13957,82025 L 13957,81151 M 13957,81151 L 13098,81151 M 13098,81151 L 13098,79859 M 13098,79859 L 12754,79859 M 12754,79859 L 12754,79147 M 12754,79147 L 11692,79147 M 11692,79147 L 11692,77947 M 11692,77947 L 11271,77947 M 11271,77947 L 11271,77372 M 11271,77372 L 9969,77372 M 9969,77372 L 9969,75883 M 9969,75883 L 10009,75883 M 10009,75883 L 10009,75017 M 10009,75017 L 9112,75017 M 9112,75017 L 9112,74052 M 9112,74052 L 8356,74052 M 8356,74052 L 8356,73174 M 8356,73174 L 7420,73174 M 7420,73174 L 7420,71902 M 7420,71902 L 7208,71902 M 7208,71902 L 7208,70981 M 7208,70981 L 6313,70981 M 6313,70981 L 6313,69530 M 6313,69530 L 6548,69530 M 6548,69530 L 6548,68561 M 6548,68561 L 5737,68561 M 5737,68561 L 5737,67493 M 5737,67493 L 5130,67493 M 5130,67493 L 5130,66441 M 5130,66441 L 4451,66441 M 4451,66441 L 4451,65197 M 4451,65197 L 4304,65197 M 4304,65197 L 4304,64071 M 4304,64071 L 3813,64071 M 3813,64071 L 3813,62733 M 3813,62733 L 4061,62733 M 4061,62733 L 4061,61563 M 4061,61563 L 3763,61563 M 3763,61563 L 3763,60526 M 3763,60526 L 2868,60526 M 2868,60526 L 2868,59320 M 2868,59320 L 2658,59320 M 2658,59320 L 2658,58003 M 2658,58003 L 3110,58003 M 3110,58003 L 3110,56912 M 3110,56912 L 2236,56912 M 2236,56912 L 2236,55612 M 2236,55612 L 2815,55612 M 2815,55612 L 2815,54463 M 2815,54463 L 2176,54463 M 2176,54463 L 2176,53256 M 2176,53256 L 1991,53256 M 1991,53256 L 1991,52027 M 1991,52027 L 2191,52027 M 2191,52027 L 2191,50822 M 2191,50822 L 1746,50822 M 1746,50822 L 1746,50372 M 1746,50372 L 94926,50372 M 94926,50372 L 94926,48373 M 94926,48373 L 1650,48373 M 1650,48373 L 1650,47151 M 1650,47151 L 1748,47151 M 1748,47151 L 1748,45959 M 1748,45959 L 2182,45959 M 2182,45959 L 2182,44724 M 2182,44724 L 2070,44724 M 2070,44724 L 2070,43482 M 2070,43482 L 2000,43482 M 2000,43482 L 2000,42352 M 2000,42352 L 2701,42352 M 2701,42352 L 2701,41171 M 2701,41171 L 2990,41171 M 2990,41171 L 2990,39906 M 2990,39906 L 2866,39906 M 2866,39906 L 2866,38738 M 2866,38738 L 3231,38738 M 3231,38738 L 3231,37620 M 3231,37620 L 3768,37620 M 3768,37620 L 3768,36462 M 3768,36462 L 4129,36462 M 4129,36462 L 4129,35396 M 4129,35396 L 4769,35396 M 4769,35396 L 4769,34029 M 4769,34029 L 4511,34029 M 4511,34029 L 4511,32910 M 4511,32910 L 5004,32910 M 5004,32910 L 5004,31796 M 5004,31796 L 5503,31796 M 5503,31796 L 5503,30544 M 5503,30544 L 5679,30544 M 5679,30544 L 5679,29790 M 5679,29790 L 6959,29790 M 6959,29790 L 6959,28477 M 6959,28477 L 7028,28477 M 7028,28477 L 7028,27438 M 7028,27438 L 7667,27438 M 7667,27438 L 7667,26258 M 7667,26258 L 8049,26258 M 8049,26258 L 8049,25547 M 8049,25547 L 9236,25547 M 9236,25547 L 9236,24498 M 9236,24498 L 9831,24498 M 9831,24498 L 9831,23395 M 9831,23395 L 10350,23395 M 10350,23395 L 10350,22054 M 10350,22054 L 10551,22054 M 10551,22054 L 10551,21180 M 10551,21180 L 11427,21180 M 11427,21180 L 11427,20298 M 11427,20298 L 12278,20298 M 12278,20298 L 12278,19275 M 12278,19275 L 12950,19275 M 12950,19275 L 12950,18389 M 12950,18389 L 13789,18389 M 13789,18389 L 13789,17359 M 13789,17359 L 14468,17359 M 14468,17359 L 14468,16786 M 14468,16786 L 15633,16786 M 15633,16786 L 15633,15459 M 15633,15459 L 16026,15459 M 16026,15459 L 16026,14915 M 16026,14915 L 17198,14915 M 17198,14915 L 17198,14289 M 17198,14289 L 18270,14289 M 18270,14289 L 18270,13257 M 18270,13257 L 18983,13257 M 18983,13257 L 18983,12899 M 18983,12899 L 20257,12899 M 20257,12899 L 20257,11476 M 20257,11476 L 20687,11476 M 20687,11476 L 20687,11226 M 20687,11226 L 22019,11226 M 22019,11226 L 22019,10137 M 22019,10137 L 22742,10137 M 22742,10137 L 22742,9365 M 22742,9365 L 23699,9365 M 23699,9365 L 23699,8665 M 23699,8665 L 24708,8665 M 24708,8665 L 24708,8556 M 24708,8556 L 26063,8556 M 26063,8556 L 26063,7609 M 26063,7609 L 26928,7609 M 26928,7609 L 26928,7486 M 26928,7486 L 28239,7486 M 28239,7486 L 28239,6654 M 28239,6654 L 29181,6654 M 29181,6654 L 29181,6166 M 29181,6166 L 30298,6166 M 30298,6166 L 30298,5931 M 30298,5931 L 31519,5931 M 31519,5931 L 31519,5378 M 31519,5378 L 32603,5378 M 32603,5378 L 32603,5291 M 32603,5291 L 33861,5291 M 33861,5291 L 33861,4883 M 33861,4883 L 34995,4883 M 34995,4883 L 34995,4410 M 34995,4410 L 36109,4410 M 36109,4410 L 36109,3349 M 36109,3349 L 37068,3349 M 37068,3349 L 37068,2952 M 37068,2952 L 38233,2952 M 38233,2952 L 38233,3324 M 38233,3324 L 39575,3324 M 39575,3324 L 39575,2539 M 39575,2539 L 40655,2539 M 40655,2539 L 40655,3047 M 40655,3047 L 41985,3047 M 41985,3047 L 41985,2019 M 41985,2019 L 43056,2019 M 43056,2019 L 43056,2589 M 43056,2589 L 44360,2589 M 44360,2589 L 44360,1841 M 44360,1841 L 45505,1841 M 45505,1841 L 45505,2455 M 45505,2455 L 46775,2455 M 46775,2455 L 46775,1706 M 46775,1706 L 47951,1706 M 47951,1706 L 47951,2282 M 47951,2282 L 49186,2282 M 49186,2282 L 49186,1769 M 49186,1769 L 50399,1769 M 50399,1769 L 50399,2442 M 50399,2442 L 51599,2442 M 51599,2442 L 51599,2360 M 51599,2360 L 52811,2360 M 52811,2360 L 52811,2429 M 52811,2429 L 54019,2429 M 54019,2429 L 54019,1925 M 54019,1925 L 55291,1925 M 55291,1925 L 55291,2650 M 55291,2650 L 56429,2650 M 56429,2650 L 56429,2307 M 56429,2307 L 57711,2307 M 57711,2307 L 57711,2657 M 57711,2657 L 58890,2657 M 58890,2657 L 58890,3006 M 58890,3006 L 60063,3006 M 60063,3006 L 60063,2863 M 60063,2863 L 61350,2863 M 61350,2863 L 61350,3206 M 61350,3206 L 62530,3206 M 62530,3206 L 62530,3937 M 62530,3937 L 63593,3937 M 63593,3937 L 63593,4278 M 63593,4278 L 64762,4278 M 64762,4278 L 64762,4357 M 64762,4357 L 66024,4357 M 66024,4357 L 66024,5363 M 66024,5363 L 66953,5363 M 66953,5363 L 66953,5729 M 66953,5729 L 68110,5729 M 68110,5729 L 68110,6224 M 68110,6224 L 69216,6224 M 69216,6224 L 69216,6704 M 69216,6704 L 70329,6704 M 70329,6704 L 70329,7396 M 70329,7396 L 71337,7396 M 71337,7396 L 71337,8022 M 71337,8022 L 72371,8022 M 72371,8022 L 72371,7912 M 72371,7912 L 73818,7912 M 73818,7912 L 73818,8887 M 73818,8887 L 74662,8887 M 74662,8887 L 74662,9895 M 74662,9895 L 75460,9895 M 75460,9895 L 75460,10341 M 75460,10341 L 76610,10341 M 76610,10341 L 76610,10916 M 76610,10916 L 77686,10916 M 77686,10916 L 77686,11166 M 77686,11166 L 79014,11166 M 79014,11166 L 79014,12141 M 79014,12141 L 79809,12141 M 79809,12141 L 79809,12986 M 79809,12986 L 80694,12986 M 80694,12986 L 80694,13676 M 80694,13676 L 81709,13676 M 81709,13676 L 81709,14453 M 81709,14453 L 82654,14453 M 82654,14453 L 82654,15685 M 82654,15685 L 83163,15685 M 83163,15685 L 83163,16111 M 83163,16111 L 84454,16111 M 84454,16111 L 84454,17061 M 84454,17061 L 85231,17061 M 85231,17061 L 85231,18137 M 85231,18137 L 85860,18137 M 85860,18137 L 85860,19057 M 85860,19057 L 86653,19057 M 86653,19057 L 86653,19729 M 86653,19729 L 87758,19729 M 87758,19729 L 87758,20935 M 87758,20935 L 88197,20935 M 88197,20935 L 88197,22019 M 88197,22019 L 88774,22019 M 88774,22019 L 88774,23062 M 88774,23062 L 89394,23062 M 89394,23062 L 89394,23670 M 89394,23670 L 90679,23670 M 90679,23670 L 90679,25126 M 90679,25126 L 90652,25126 M 90652,25126 L 90652,26103 M 90652,26103 L 91374,26103 M 91374,26103 L 91374,27203 M 91374,27203 L 91885,27203 M 91885,27203 L 91885,27989 M 91885,27989 L 93001,27989 M 93001,27989 L 93001,29416 M 93001,29416 L 92856,29416 M 92856,29416 L 92856,30167 M 92856,30167 L 94124,30167 M 94124,30167 L 94124,31508 M 94124,31508 L 94095,31508 M 94095,31508 L 94095,32411 M 94095,32411 L 95112,32411 M 95112,32411 L 95112,33829 M 95112,33829 L 94797,33829 M 94797,33829 L 94797,34839 M 94797,34839 L 95584,34839 M 95584,34839 L 95584,35890 M 95584,35890 L 96309,35890 M 96309,35890 L 96309,37146 M 96309,37146 L 96368,37146 M 96368,37146 L 96368,38359 M 96368,38359 L 96544,38359 M 96544,38359 L 96544,39540 M 96544,39540 L 96830,39540 M 96830,39540 L 96830,40764 M 96830,40764 L 96909,40764 M 96909,40764 L 96909,41928 M 96909,41928 L 97289,41928 M 97289,41928 L 97289,43153 M 97289,43153 L 97305,43153 M 97305,43153 L 97305,44320 M 97305,44320 L 97745,44320 M 97745,44320 L 97745,45563 M 97745,45563 L 97541,45563 M 97541,45563 L 97541,46736 M 97541,46736 L 98122,46736 M 98122,46736 L 98122,47964 M 98122,47964 L 98003,47964 M 98003,47964 L 98003,49176 M 98003,49176 L 98319,49176 M 98319,49176 L 98319,50397 M 98319,50397 L 97924,50397 " stroke-width="400" stroke="red" /></svg>